<svg width="121" height="121" xmlns="http://www.w3.org/2000/svg" xmlns:svg="http://www.w3.org/2000/svg">

<g>
	<circle r="10.3" cy="42" cx="60" fill="#868686"/>

	<path
   d="M 118.7,74.8 C 113,101.5 87,120.5 60,120.5 c -7.6,0 -9.8,-4.1 -9.8,-9 0,-3 0,-7 0,-12 -0,-12 0,-26 0,-31 0,-7.3 4.5,-10.6 9.9,-10.6 6,0 9.7,3.4 9.6,10.6 C 70,75.5 70,88.5 70,100 76,98.5 82,95.5 86,91.4 95,84.5 101,72.5 100.8,60 100.7,52.5 99,44.5 94.4,38.4 84,24.5 76,20.5 60,20 48,19.5 36.4,25.4 29,34.4 20,46.5 18.5,57.6 21,69.5 c 2.2,10 8,18 16,24 7,5 6,10 3,14 C 34,116.5 26,110.5 21,106 10,97 3,84 1,70 l 0,-0 C -2,47 5,29 21,15 25,11 30,8 35,5.5 43,2 51,0 60,0 83,0.5 97,10.5 107.6,23 120,39.5 123,56.5 118.7,75 Z" fill="#868686" />
</g>
</svg>